<svg id="Artwork" xmlns="http://www.w3.org/2000/svg" viewBox="0 0 16 16"><path d="M3.67,6.5A.72.72,0,0,1,4.34,7l2,5.08a.31.31,0,0,1-.18.41.2.2,0,0,1-.11,0,.32.32,0,0,1-.3-.21L5,10.44H2.34l-.72,1.84a.31.31,0,0,1-.41.19A.33.33,0,0,1,1,12.05L3,7A.71.71,0,0,1,3.67,6.5Zm-.08.7-1,2.59H4.75l-1-2.59a.09.09,0,0,0-.07-.06A.09.09,0,0,0,3.59,7.2Z" style="fill-rule:evenodd"/><path d="M11.82,4.14,15,12.05a.31.31,0,0,1,0,.25.37.37,0,0,1-.17.18l-.12,0a.32.32,0,0,1-.32-.22L13.07,9H8.81L7.5,12.28a.3.3,0,0,1-.25.2.32.32,0,0,1-.3-.12.29.29,0,0,1,0-.31l3.14-7.91a1,1,0,0,1,.89-.64A1,1,0,0,1,11.82,4.14Zm-1.17.22-1.59,4h3.78l-1.59-4a.32.32,0,0,0-.6,0Z" style="fill-rule:evenodd"/></svg>