<svg xmlns="http://www.w3.org/2000/svg" class="world-icon" viewBox="0 0 16 16"><path d="M8 1a7 7 0 107 7 7 7 0 00-7-7zm1.26 4.15a.91.91 0 01.16.11.86.86 0 01.13.14.66.66 0 00.58.29c.34 0 .49-.34.62-.61a1.69 1.69 0 00.11-.27 4.86 4.86 0 00.27.47 2.26 2.26 0 00.22.22.48.48 0 01-.35.5 2.73 2.73 0 00-.75.64 1.1 1.1 0 01-.43.38 3.77 3.77 0 01-.57 0c-.69 0-1.46-.1-1.71.51a1 1 0 00.35 1.16 3.85 3.85 0 01-1.2-1.33A3.29 3.29 0 016.35 6a6.74 6.74 0 00-.15-1 2 2 0 00-1.52-1.73C5 3 5.13 2.93 5.31 3h.16a4.42 4.42 0 001.18.14A3.24 3.24 0 007.19 3a3.74 3.74 0 01.38 0c.12 0 .14 0 .28.1a1.73 1.73 0 00.74.3h.39a1.3 1.3 0 00-.32.68 1.07 1.07 0 00.6 1.07zM2 8a6 6 0 011.37-3.82c1.13 0 1.64.07 1.86 1a5.18 5.18 0 01.12.82 4.17 4.17 0 00.47 1.81 4.78 4.78 0 001.57 1.7 3.43 3.43 0 00.72.3 2.19 2.19 0 01.61.26 1.69 1.69 0 000 .25 3.59 3.59 0 00.28 1.6 2.09 2.09 0 00.35.47 1.05 1.05 0 010 .13 5.14 5.14 0 01-.36 1c-.07.15-.13.3-.19.44A5.16 5.16 0 018 14a6 6 0 01-6-6zm7.75 1.75h.09a.81.81 0 00.57-.27 1 1 0 011.22.84.58.58 0 00.37.39c0 .06 0 .33-.67 1.3l-.17.23a4.46 4.46 0 01-1.07 1.2 4.3 4.3 0 00.23-.75.92.92 0 00-.24-1 .71.71 0 01-.19-.25 2.83 2.83 0 01-.18-1.15.53.53 0 00.04-.54zm3 1.94a1.71 1.71 0 00.25-1.27 1 1 0 00-.4-.53 2 2 0 00-2.36-1.37.74.74 0 00-.44.22 3.32 3.32 0 01-.37-.23l-.26-.17A5.39 5.39 0 018.62 8h.61a2.42 2.42 0 00.95 0 2 2 0 00.87-.66 1.81 1.81 0 01.46-.42 1.45 1.45 0 00.84-1.45.8.8 0 00-.34-.7l-.09-.08c0-.06-.11-.19-.18-.33-.25-.47-.35-.66-.67-.66h-.57a.5.5 0 00-.49.4 2.6 2.6 0 01-.07.31l-.13-.09a.92.92 0 01-.16-.12 1 1 0 01.52-.51.49.49 0 00.26-.32.51.51 0 00-.06-.42A1.43 1.43 0 009 2.37a1.83 1.83 0 01-.33 0 .53.53 0 01-.3-.13A1.88 1.88 0 008 2a6 6 0 014.72 9.69z"/></svg>